<svg aria-hidden="true" style="position: absolute; width: 0; height: 0; overflow: hidden;" version="1.1" xmlns="http://www.w3.org/2000/svg" xmlns:xlink="http://www.w3.org/1999/xlink">
<defs>
<symbol id="icon-gift" viewBox="0 0 32 32">
<path fill="#fff" style="fill: var(--color1, #fff)" d="M25.144 14.809v9.144c0 0.684-0.556 1.241-1.241 1.241h-15.787c-0.684 0-1.241-0.556-1.241-1.241v-9.144h-0.588c-0.684 0-1.241-0.556-1.241-1.241v-2.134c0-0.684 0.556-1.241 1.241-1.241h19.441c0.684 0 1.241 0.556 1.241 1.241v2.134c0 0.684-0.556 1.241-1.241 1.241h-0.584z"></path>
<path fill="#333" style="fill: var(--color2, #333)" d="M23.903 26.022h-15.787c-1.141 0-2.069-0.928-2.069-2.069v-8.331c-1.028-0.119-1.828-0.997-1.828-2.053v-2.134c0-1.141 0.928-2.069 2.069-2.069h19.441c1.141 0 2.069 0.928 2.069 2.069v2.134c0 1.059-0.8 1.934-1.828 2.053v8.331c0.003 1.141-0.925 2.069-2.066 2.069zM6.287 11.022c-0.228 0-0.412 0.184-0.412 0.412v2.134c0 0.228 0.184 0.412 0.412 0.412h1.412v9.972c0 0.228 0.184 0.413 0.412 0.413h15.791c0.228 0 0.413-0.184 0.413-0.413v-9.972h1.413c0.228 0 0.413-0.184 0.413-0.412v-2.134c0-0.228-0.184-0.412-0.413-0.412h-19.441z"></path>
<path fill="#ffdb5b" style="fill: var(--color3, #ffdb5b)" d="M14.791 15.384h2.437v9.231h-2.438z"></path>
<path fill="#333" style="fill: var(--color2, #333)" d="M7.484 13.981h17.050v1.616h-17.050z"></path>
<path fill="#ffdb5b" style="fill: var(--color3, #ffdb5b)" d="M9.555 7.132l0.614-0.355c0.484-0.28 1.101-0.123 1.396 0.349l1.285 2.069-3.252 0.073-0.421-0.724c-0.289-0.494-0.119-1.125 0.374-1.414 0.002 0.003 0.002 0.003 0.004 0.001z"></path>
<path fill="#333" style="fill: var(--color2, #333)" d="M8.66 10.951l-0.912-1.567c-0.743-1.281-0.31-2.931 0.971-3.675l0.622-0.359c1.264-0.73 2.859-0.33 3.627 0.908l2.817 4.529-7.126 0.163zM9.555 7.132l-0.011 0.006c-0.486 0.284-0.653 0.918-0.369 1.411l0.42 0.721 3.255-0.075-1.285-2.069c-0.297-0.478-0.911-0.629-1.396-0.349l-0.614 0.355zM12.963 15.384h1.828v9.231h-1.828zM17.228 15.384h1.828v9.231h-1.828z"></path>
<path fill="#ffdb5b" style="fill: var(--color3, #ffdb5b)" d="M22.399 7.133l-0.614-0.355c-0.484-0.28-1.101-0.123-1.396 0.349l-1.285 2.069 3.252 0.073 0.42-0.721c0.289-0.494 0.119-1.125-0.374-1.414l-0.003-0.002z"></path>
<path fill="#333" style="fill: var(--color2, #333)" d="M23.293 10.947l-7.126-0.163 2.817-4.529c0.77-1.24 2.364-1.638 3.627-0.908l0.644 0.372c0.61 0.363 1.045 0.939 1.227 1.625 0.184 0.694 0.087 1.418-0.275 2.039l-0.914 1.565zM19.102 9.199l3.252 0.073 0.421-0.724c0.137-0.238 0.177-0.519 0.106-0.783-0.069-0.267-0.241-0.489-0.477-0.629l-0.62-0.358c-0.487-0.281-1.1-0.126-1.396 0.349l-1.286 2.072z"></path>
</symbol>
</defs>
</svg>
