<svg aria-hidden="true" style="position: absolute; width: 0; height: 0; overflow: hidden;" version="1.1" xmlns="http://www.w3.org/2000/svg" xmlns:xlink="http://www.w3.org/1999/xlink">
<defs>
<symbol id="icon-succes" viewBox="0 0 32 32">
<path fill="#0074ff" style="fill: var(--color1, #0074ff)" d="M20.89 28.565c-0.791-0.003-1.52-0.263-2.11-0.702l0.009 0.007-2.16-1.58c-0.255-0.19-0.577-0.304-0.925-0.304s-0.67 0.114-0.929 0.307l0.004-0.003-2.16 1.58c-0.582 0.429-1.314 0.687-2.106 0.687-1.972 0-3.57-1.598-3.57-3.57 0-0.135 0.007-0.267 0.022-0.398l-0.001 0.016 0.29-2.66c0.006-0.052 0.010-0.113 0.010-0.174 0-0.634-0.38-1.18-0.925-1.422l-0.010-0.004-2.445-1.080c-1.267-0.565-2.134-1.814-2.134-3.265s0.867-2.7 2.111-3.256l0.023-0.009 2.445-1.080c0.555-0.246 0.935-0.791 0.935-1.426 0-0.061-0.004-0.122-0.010-0.181l0.001 0.007-0.29-2.66c-0.013-0.115-0.021-0.247-0.021-0.382 0-1.972 1.598-3.57 3.57-3.57 0.792 0 1.523 0.258 2.115 0.694l-0.010-0.007 2.16 1.58c0.255 0.19 0.577 0.304 0.925 0.304s0.67-0.114 0.929-0.307l-0.004 0.003 2.16-1.58c0.574-0.429 1.298-0.687 2.082-0.687 0.222 0 0.439 0.021 0.649 0.060l-0.022-0.003c0.997 0.186 1.835 0.758 2.367 1.552l0.008 0.013c0.109 0.158 0.174 0.353 0.174 0.564 0 0.552-0.448 1-1 1-0.353 0-0.664-0.183-0.842-0.46l-0.002-0.004c-0.241-0.359-0.615-0.613-1.050-0.693l-0.010-0.002c-0.082-0.016-0.176-0.025-0.272-0.025-0.345 0-0.663 0.117-0.916 0.312l0.003-0.003-2.16 1.58c-0.582 0.431-1.315 0.69-2.107 0.69s-1.525-0.259-2.117-0.697l0.010 0.007-2.155-1.58c-0.26-0.199-0.589-0.319-0.946-0.319-0.864 0-1.565 0.701-1.565 1.565 0 0.066 0.004 0.132 0.012 0.196l-0.001-0.008 0.29 2.655c0.015 0.123 0.024 0.265 0.024 0.41 0 1.438-0.854 2.676-2.081 3.236l-0.022 0.009-2.45 1.080c-0.554 0.25-0.933 0.799-0.933 1.435s0.379 1.185 0.923 1.431l0.010 0.004 2.45 1.050c1.263 0.564 2.127 1.809 2.127 3.256 0 0.139-0.008 0.276-0.024 0.411l0.002-0.016-0.29 2.655c-0.007 0.057-0.011 0.122-0.011 0.189 0 0.864 0.701 1.565 1.565 1.565 0.357 0 0.687-0.12 0.95-0.321l2.151-1.577c0.582-0.431 1.315-0.69 2.107-0.69s1.525 0.259 2.117 0.697l-0.010-0.007 2.16 1.58c0.26 0.199 0.589 0.319 0.946 0.319 0.864 0 1.565-0.701 1.565-1.565 0-0.066-0.004-0.132-0.012-0.196l0.001 0.008-0.29-2.655c-0.015-0.123-0.024-0.266-0.024-0.41 0-1.435 0.851-2.671 2.077-3.231l0.022-0.009 2.45-1.080c0.554-0.25 0.933-0.799 0.933-1.435s-0.379-1.185-0.923-1.431l-0.010-0.004-1.33-0.55c-0.368-0.153-0.623-0.51-0.623-0.926 0-0.552 0.448-1 1-1 0.155 0 0.303 0.035 0.434 0.099l-0.006-0.003 1.33 0.585c1.267 0.565 2.134 1.814 2.134 3.265s-0.867 2.7-2.111 3.256l-0.023 0.009-2.445 1.080c-0.557 0.248-0.939 0.796-0.939 1.434 0 0.058 0.003 0.116 0.009 0.173l-0.001-0.007 0.29 2.66c0.016 0.127 0.026 0.274 0.026 0.424 0 1.303-0.712 2.44-1.768 3.042l-0.017 0.009c-0.508 0.293-1.117 0.465-1.766 0.465-0.008 0-0.017-0-0.025-0h0.001z"></path>
<path fill="#ffb300" style="fill: var(--color2, #ffb300)" d="M15.82 19.5c-0 0-0.001 0-0.001 0-0.277 0-0.528-0.113-0.709-0.295l-0-0-4.305-4.305c-0.221-0.185-0.361-0.461-0.361-0.769 0-0.552 0.448-1 1-1 0.312 0 0.591 0.143 0.774 0.367l0.001 0.002 3.6 3.6 12.72-12.74c0.177-0.16 0.412-0.258 0.67-0.258 0.552 0 1 0.448 1 1 0 0.259-0.099 0.496-0.261 0.674l0.001-0.001-13.425 13.425c-0.18 0.183-0.429 0.297-0.704 0.3h-0.001z"></path>
</symbol>
<symbol id="icon-maps-svgrepo-com" viewBox="0 0 32 32">
<path stroke-linejoin="miter" stroke-linecap="butt" stroke-miterlimit="4" stroke-width="0.48" d="M16 3.667c-2.395 0.001-4.563 0.976-6.128 2.55l-0 0c-1.569 1.578-2.538 3.752-2.538 6.154 0 0.001 0 0.003 0 0.004v-0c0 2.766 0.716 4.778 3.468 8.15 1.226 1.388 2.333 2.937 3.271 4.594l0.071 0.136c0.998 2.033 0.88 3.413 1.856 3.413s0.858-1.38 1.856-3.413c1.009-1.793 2.116-3.342 3.368-4.759l-0.026 0.029c2.753-3.372 3.468-5.384 3.468-8.15 0-0.001 0-0.002 0-0.004 0-2.401-0.97-4.576-2.539-6.154l0 0c-1.566-1.575-3.733-2.549-6.128-2.55h-0z"></path>
<path stroke-linejoin="miter" stroke-linecap="butt" stroke-miterlimit="4" stroke-width="0.48" d="M19.333 12.333c0 1.841-1.492 3.333-3.333 3.333s-3.333-1.492-3.333-3.333c0-1.841 1.492-3.333 3.333-3.333s3.333 1.492 3.333 3.333z"></path>
</symbol>
<symbol id="icon-phone-svgrepo-com" viewBox="0 0 32 32">
<path fill="#1c274c" style="fill: var(--color3, #1c274c)" d="M21.468 17.812v0zM22.075 17.208v0zM25.297 16.786v0zM27.844 18.171v0zM28.562 22.511v0zM26.668 24.394v0zM24.902 25.287v0zM11.754 19.635v0zM5.337 7.661v0zM13.97 9.597v0zM14.179 6.058v0zM12.498 3.812v0zM8.349 3.433v0zM6.256 5.514v0zM16.084 15.33v0zM22.173 18.521l0.607-0.604-1.41-1.418-0.607 0.604 1.41 1.418zM24.819 17.664l2.547 1.385 0.955-1.757-2.547-1.385-0.955 1.757zM27.857 21.801l-1.894 1.883 1.41 1.418 1.894-1.883-1.41-1.418zM24.809 24.291c-1.933 0.18-6.935 0.020-12.35-5.365l-1.41 1.418c5.909 5.876 11.534 6.163 13.946 5.938l-0.186-1.991zM12.459 18.926c-5.162-5.133-6.017-9.449-6.123-11.322l-1.997 0.113c0.134 2.357 1.193 7.141 6.71 12.627l1.41-1.418zM14.293 10.686l0.382-0.38-1.41-1.418-0.382 0.38 1.41 1.418zM14.979 5.459l-1.681-2.246-1.601 1.199 1.681 2.246 1.601-1.199zM7.644 2.724l-2.093 2.081 1.41 1.418 2.093-2.081-1.41-1.418zM13.588 9.977c-0.705-0.709-0.706-0.708-0.707-0.707s-0.001 0.001-0.002 0.002-0.003 0.003-0.004 0.004-0.005 0.006-0.008 0.009-0.012 0.012-0.018 0.019-0.027 0.030-0.042 0.048c-0.030 0.036-0.064 0.080-0.1 0.134-0.072 0.107-0.151 0.247-0.218 0.424-0.136 0.361-0.209 0.838-0.118 1.428 0.179 1.154 0.974 2.678 3.009 4.701l1.41-1.418c-1.905-1.894-2.358-3.046-2.443-3.59-0.040-0.259 0.001-0.386 0.013-0.416 0.007-0.019 0.010-0.021 0.002-0.008-0.004 0.006-0.011 0.016-0.022 0.029-0.005 0.007-0.012 0.014-0.020 0.022-0.004 0.004-0.008 0.008-0.012 0.013-0.002 0.002-0.004 0.005-0.007 0.007-0.001 0.001-0.002 0.002-0.004 0.004s-0.001 0.002-0.002 0.002-0.002 0.002-0.707-0.707zM15.379 16.039c2.036 2.024 3.567 2.812 4.723 2.99 0.591 0.091 1.067 0.018 1.428-0.116 0.177-0.066 0.318-0.144 0.425-0.215 0.053-0.036 0.098-0.070 0.134-0.1 0.018-0.015 0.034-0.029 0.048-0.042 0.007-0.006 0.014-0.012 0.020-0.018 0.003-0.003 0.006-0.006 0.009-0.008 0.001-0.001 0.003-0.003 0.004-0.004s0.002-0.002 0.002-0.002 0.002-0.002-0.703-0.711c-0.705-0.709-0.704-0.71-0.703-0.711s0.001-0.001 0.002-0.002 0.002-0.002 0.004-0.004 0.005-0.005 0.007-0.007 0.009-0.008 0.013-0.012 0.016-0.014 0.022-0.019 0.023-0.018 0.029-0.022c0.012-0.008 0.010-0.005-0.010 0.003-0.033 0.012-0.163 0.054-0.426 0.013-0.551-0.084-1.712-0.538-3.616-2.431l-1.41 1.418zM13.298 3.213c-1.359-1.815-4.032-2.103-5.655-0.489l1.41 1.418c0.709-0.705 1.968-0.633 2.643 0.269l1.601-1.199zM6.336 7.604c-0.026-0.461 0.185-0.944 0.625-1.381l-1.41-1.418c-0.716 0.712-1.28 1.721-1.212 2.913l1.997-0.113zM25.963 23.685c-0.366 0.364-0.759 0.57-1.154 0.606l0.186 1.991c0.979-0.091 1.782-0.586 2.379-1.179l-1.41-1.418zM14.675 10.306c1.313-1.305 1.41-3.37 0.304-4.847l-1.601 1.199c0.538 0.719 0.458 1.662-0.113 2.23l1.41 1.418zM27.367 19.049c1.090 0.593 1.26 1.987 0.49 2.752l1.41 1.418c1.787-1.777 1.236-4.742-0.945-5.928l-0.955 1.757zM22.78 17.917c0.512-0.509 1.336-0.635 2.039-0.253l0.955-1.757c-1.445-0.785-3.238-0.569-4.405 0.592l1.41 1.418z"></path>
</symbol>
</defs>
</svg>
