<svg aria-hidden="true" style="position:absolute;width:0;height:0;overflow:hidden" xmlns="http://www.w3.org/2000/svg"><defs><symbol id="icon-succes" viewBox="0 0 32 32"><path fill="#0074ff" style="fill:var(--color1, #0074ff)" d="M20.89 28.565c-.791-.003-1.52-.263-2.11-.702l.009.007-2.16-1.58c-.255-.19-.577-.304-.925-.304s-.67.114-.929.307l.004-.003-2.16 1.58c-.582.429-1.314.687-2.106.687-1.972 0-3.57-1.598-3.57-3.57 0-.135.007-.267.022-.398l-.001.016.29-2.66c.006-.052.01-.113.01-.174 0-.634-.38-1.18-.925-1.422l-.01-.004-2.445-1.08C2.617 18.7 1.75 17.451 1.75 16s.867-2.7 2.111-3.256l.023-.009 2.445-1.08c.555-.246.935-.791.935-1.426 0-.061-.004-.122-.01-.181l.001.007-.29-2.66c-.013-.115-.021-.247-.021-.382 0-1.972 1.598-3.57 3.57-3.57.792 0 1.523.258 2.115.694l-.01-.007 2.16 1.58c.255.19.577.304.925.304s.67-.114.929-.307l-.004.003 2.16-1.58c.574-.429 1.298-.687 2.082-.687.222 0 .439.021.649.06l-.022-.003c.997.186 1.835.758 2.367 1.552l.008.013c.109.158.174.353.174.564 0 .552-.448 1-1 1-.353 0-.664-.183-.842-.46l-.002-.004c-.241-.359-.615-.613-1.05-.693l-.01-.002c-.082-.016-.176-.025-.272-.025-.345 0-.663.117-.916.312l.003-.003-2.16 1.58c-.582.431-1.315.69-2.107.69s-1.525-.259-2.117-.697l.01.007-2.155-1.58c-.26-.199-.589-.319-.946-.319-.864 0-1.565.701-1.565 1.565 0 .066.004.132.012.196l-.001-.008.29 2.655c.015.123.024.265.024.41 0 1.438-.854 2.676-2.081 3.236l-.022.009-2.45 1.08c-.554.25-.933.799-.933 1.435s.379 1.185.923 1.431l.01.004 2.45 1.05c1.263.564 2.127 1.809 2.127 3.256 0 .139-.008.276-.024.411l.002-.016-.29 2.655c-.007.057-.011.122-.011.189 0 .864.701 1.565 1.565 1.565.357 0 .687-.12.95-.321l2.151-1.577c.582-.431 1.315-.69 2.107-.69s1.525.259 2.117.697l-.01-.007 2.16 1.58c.26.199.589.319.946.319.864 0 1.565-.701 1.565-1.565 0-.066-.004-.132-.012-.196l.001.008-.29-2.655c-.015-.123-.024-.266-.024-.41 0-1.435.851-2.671 2.077-3.231l.022-.009 2.45-1.08c.554-.25.933-.799.933-1.435s-.379-1.185-.923-1.431l-.01-.004-1.33-.55c-.368-.153-.623-.51-.623-.926 0-.552.448-1 1-1 .155 0 .303.035.434.099l-.006-.003 1.33.585c1.267.565 2.134 1.814 2.134 3.265s-.867 2.7-2.111 3.256l-.023.009-2.445 1.08c-.557.248-.939.796-.939 1.434 0 .058.003.116.009.173l-.001-.007.29 2.66c.016.127.026.274.026.424 0 1.303-.712 2.44-1.768 3.042l-.017.009c-.508.293-1.117.465-1.766.465h-.025.001z"/><path fill="#ffb300" style="fill:var(--color2, #ffb300)" d="M15.82 19.5h-.001c-.277 0-.528-.113-.709-.295L10.805 14.9c-.221-.185-.361-.461-.361-.769 0-.552.448-1 1-1 .312 0 .591.143.774.367l.001.002 3.6 3.6 12.72-12.74c.177-.16.412-.258.67-.258.552 0 1 .448 1 1 0 .259-.099.496-.261.674l.001-.001L16.524 19.2c-.18.183-.429.297-.704.3h-.001z"/></symbol><symbol id="icon-map" viewBox="0 0 24 24"><path d="M3.25 10.143C3.25 5.244 7.155 1.25 12 1.25s8.75 3.994 8.75 8.893c0 2.365-.674 4.905-1.866 7.099-1.19 2.191-2.929 4.095-5.104 5.112-1.13.528-2.431.528-3.561 0-2.175-1.017-3.914-2.921-5.104-5.112-1.192-2.194-1.866-4.734-1.866-7.099zM12 2.75c-3.992 0-7.25 3.297-7.25 7.393 0 2.097.603 4.392 1.684 6.383 1.083 1.993 2.612 3.624 4.421 4.469.728.34 1.563.34 2.291 0 1.809-.845 3.338-2.476 4.421-4.469 1.081-1.991 1.684-4.286 1.684-6.383 0-4.096-3.258-7.393-7.25-7.393zm0 5c-1.243 0-2.25 1.007-2.25 2.25s1.007 2.25 2.25 2.25 2.25-1.007 2.25-2.25S13.243 7.75 12 7.75zM8.25 10c0-2.071 1.679-3.75 3.75-3.75s3.75 1.679 3.75 3.75c0 2.071-1.679 3.75-3.75 3.75S8.25 12.071 8.25 10z"/></symbol><symbol id="icon-phone" viewBox="0 0 32 32"><path d="M21.468 17.812zm.607-.604zm3.222-.422zm2.547 1.385zm.718 4.34zm-1.894 1.883zm-1.766.893zm-13.148-5.652zM5.337 7.661zm8.633 1.936zm.209-3.539zm-1.681-2.246zm-4.149-.379zM6.256 5.514zm9.828 9.816zm6.089 3.191.607-.604-1.41-1.418-.607.604 1.41 1.418zm2.646-.857 2.547 1.385.955-1.757-2.547-1.385-.955 1.757zm3.038 4.137-1.894 1.883 1.41 1.418 1.894-1.883-1.41-1.418zm-3.048 2.49c-1.933.18-6.935.02-12.35-5.365l-1.41 1.418c5.909 5.876 11.534 6.163 13.946 5.938l-.186-1.991zm-12.35-5.365C7.297 13.793 6.442 9.477 6.336 7.604l-1.997.113c.134 2.357 1.193 7.141 6.71 12.627l1.41-1.418zm1.834-8.24.382-.38-1.41-1.418-.382.38 1.41 1.418zm.686-5.227-1.681-2.246-1.601 1.199 1.681 2.246 1.601-1.199zM7.644 2.724 5.551 4.805l1.41 1.418 2.093-2.081-1.41-1.418zm5.944 7.253c-.705-.709-.706-.708-.707-.707l-.002.002-.004.004c-.001.001-.005.006-.008.009s-.012.012-.018.019-.027.03-.042.048c-.03.036-.064.08-.1.134-.072.107-.151.247-.218.424-.136.361-.209.838-.118 1.428.179 1.154.974 2.678 3.009 4.701l1.41-1.418c-1.905-1.894-2.358-3.046-2.443-3.59-.04-.259.001-.386.013-.416.007-.019.01-.021.002-.008-.004.006-.011.016-.022.029-.005.007-.012.014-.02.022-.004.004-.008.008-.012.013-.002.002-.004.005-.007.007l-.004.004c-.002.002-.001.002-.002.002s-.002.002-.707-.707zm1.791 6.062c2.036 2.024 3.567 2.812 4.723 2.99.591.091 1.067.018 1.428-.116.177-.066.318-.144.425-.215.053-.036.098-.07.134-.1.018-.015.034-.029.048-.042.007-.006.014-.012.02-.018.003-.003.006-.006.009-.008l.004-.004.002-.002s.002-.002-.703-.711-.704-.71-.703-.711l.002-.002.004-.004.007-.007c.002-.002.009-.008.013-.012s.016-.014.022-.019.023-.018.029-.022c.012-.008.01-.005-.01.003-.033.012-.163.054-.426.013-.551-.084-1.712-.538-3.616-2.431l-1.41 1.418zM13.298 3.213c-1.359-1.815-4.032-2.103-5.655-.489l1.41 1.418c.709-.705 1.968-.633 2.643.269l1.601-1.199zM6.336 7.604c-.026-.461.185-.944.625-1.381l-1.41-1.418c-.716.712-1.28 1.721-1.212 2.913l1.997-.113zm19.627 16.081c-.366.364-.759.57-1.154.606l.186 1.991c.979-.091 1.782-.586 2.379-1.179l-1.41-1.418zM14.675 10.306c1.313-1.305 1.41-3.37.304-4.847l-1.601 1.199c.538.719.458 1.662-.113 2.23l1.41 1.418zm12.692 8.743c1.09.593 1.26 1.987.49 2.752l1.41 1.418c1.787-1.777 1.236-4.742-.945-5.928l-.955 1.757zm-4.587-1.132c.512-.509 1.336-.635 2.039-.253l.955-1.757c-1.445-.785-3.238-.569-4.405.592l1.41 1.418z"/></symbol><symbol id="icon-burger" viewBox="0 0 24 24"><path d="M2.571 6c0-.473.384-.857.857-.857h17.143c.473 0 .857.384.857.857s-.384.857-.857.857H3.428c-.473 0-.857-.384-.857-.857zM2.571 12c0-.473.384-.857.857-.857h17.143c.473 0 .857.384.857.857s-.384.857-.857.857H3.428c-.473 0-.857-.384-.857-.857zM3.429 17.143c-.473 0-.857.384-.857.857s.384.857.857.857h17.143c.473 0 .857-.384.857-.857s-.384-.857-.857-.857H3.429z"/></symbol><symbol id="icon-email" viewBox="0 0 20 20"><path d="M3.238 4.364c-.567.526-.946 1.38-.946 2.719v5.833c0 1.339.379 2.193.946 2.719.575.534 1.441.823 2.596.823h8.333c1.154 0 2.021-.289 2.596-.823.567-.526.946-1.38.946-2.719V7.083c0-1.339-.379-2.193-.946-2.719-.575-.534-1.441-.823-2.596-.823H5.834c-1.154 0-2.021.289-2.596.823zm-.851-.916c.883-.82 2.1-1.157 3.446-1.157h8.333c1.346 0 2.563.336 3.446 1.157.892.828 1.346 2.058 1.346 3.635v5.833c0 1.578-.454 2.807-1.346 3.635-.883.82-2.1 1.157-3.446 1.157H5.833c-1.346 0-2.563-.336-3.446-1.157-.892-.828-1.346-2.058-1.346-3.635V7.083c0-1.577.454-2.807 1.346-3.635z"/><path d="M16.136 6.092c.211.273.161.666-.112.877l-4.623 3.572c-.825.638-1.977.638-2.802 0L3.976 6.969c-.273-.211-.323-.604-.112-.877s.604-.323.877-.112l4.623 3.572c.375.29.899.29 1.274 0l4.623-3.572c.273-.211.666-.161.877.112z"/></symbol><symbol id="icon-user" viewBox="0 0 24 24"><path d="M21.773 20.245c-.639-1.153-1.617-1.956-2.558-2.524s-1.86-.905-2.398-1.107c-.41-.152-.842-.349-1.139-.559-.149-.103-.261-.209-.324-.295-.064-.088-.077-.143-.077-.186v-1.608c.059-.15.121-.272.191-.385.118-.195.276-.391.434-.687.131-.247.249-.557.339-.963.08-.039.159-.084.237-.138.238-.164.439-.403.603-.716.166-.314.31-.708.462-1.241l-.001.004.001-.004c.079-.277.116-.52.116-.741.003-.355-.108-.663-.292-.871-.064-.074-.133-.129-.203-.177.023-.273.065-.636.105-1.055.046-.486.087-1.041.087-1.616-.002-.91-.099-1.87-.484-2.699-.193-.413-.463-.794-.833-1.094-.34-.277-.765-.476-1.259-.581-.335-.257-.659-.481-1.063-.637-.436-.169-.939-.247-1.604-.247-.21 0-.437.008-.685.023-.694.003-1.262.088-1.811.086-.383 0-.76-.037-1.198-.162l-.234-.067-.187.156c-.575.488-.883 1.215-1.072 2.024-.186.812-.247 1.724-.247 2.629 0 1.181.106 2.347.195 3.222-.068.044-.136.096-.201.164-.198.207-.322.528-.319.9 0 .221.038.464.116.74v.001c.204.711.389 1.176.639 1.529.125.175.269.319.426.428.077.054.156.098.235.137.142.608.382 1.049.587 1.368.116.181.218.324.281.431.06.101.078.158.082.184v1.661c0 .033-.013.092-.084.187-.103.14-.328.318-.597.468-.269.153-.579.286-.851.382-.732.259-2.121.765-3.35 1.749-.615.493-1.192 1.109-1.616 1.879s-.691 1.692-.69 2.765c0 .186.008.378.024.573l.035.421h20.812l.035-.421c.016-.195.024-.386.024-.572.001-1.072-.266-1.994-.692-2.762zm-.23 2.836H2.456c0-.025-.003-.051-.003-.075.001-.923.223-1.679.576-2.322.529-.962 1.371-1.673 2.225-2.188s1.709-.829 2.241-1.017c.42-.149.907-.364 1.322-.652.208-.145.399-.308.552-.51.152-.199.271-.451.271-.742v-1.724l-.003-.024c-.025-.23-.116-.411-.208-.567-.141-.235-.3-.44-.445-.706-.145-.265-.279-.584-.359-1.034l-.046-.263-.251-.09c-.115-.041-.197-.081-.266-.129-.102-.072-.196-.169-.316-.392-.118-.221-.248-.562-.39-1.063-.061-.213-.082-.375-.082-.489.004-.197.047-.243.071-.273.025-.029.071-.051.121-.062l.399-.089-.043-.407c-.094-.893-.225-2.181-.225-3.456 0-.862.061-1.717.224-2.423.135-.596.348-1.07.612-1.371.424.097.817.132 1.184.132.648-.001 1.213-.088 1.836-.087h.015l.016-.001c.233-.014.442-.021.63-.021.598 0 .971.069 1.273.185s.561.294.911.567l.09.07.112.02c.41.074.714.22.96.418.366.296.612.734.767 1.276.155.54.211 1.174.21 1.804 0 .53-.039 1.058-.083 1.529s-.095.884-.117 1.205c-.004.057-.009.106-.015.162l-.041.391.381.1c.049.013.087.034.111.062.023.03.064.081.067.269 0 .114-.02.275-.081.487v.001c-.189.668-.359 1.049-.503 1.248-.072.1-.134.159-.204.207s-.151.088-.266.129l-.251.09-.046.263c-.055.31-.121.533-.19.708-.105.262-.217.424-.362.638-.144.211-.317.474-.452.852l-.027.075v1.78c-.001.281.109.532.256.73.223.299.527.515.856.704.33.187.688.34 1.025.466.713.265 1.999.745 3.086 1.615.543.434 1.034.96 1.388 1.6.354.641.576 1.395.577 2.317 0 .024-.003.05-.003.074z"/></symbol><symbol id="icon-city" viewBox="0 0 20 20"><path d="M6.25 2.427 1.875 4.615v12.886h16.25V6.251h-7.5V4.615L6.25 2.427zm0 1.396 3.125 1.563V16.25h-6.25V5.386L6.25 3.823zM4.375 6.25V7.5h1.25V6.25h-1.25zm2.5 0V7.5h1.25V6.25h-1.25zm3.75 1.25h6.25v8.75h-6.25V7.5zm-6.25 1.25V10h1.25V8.75h-1.25zm2.5 0V10h1.25V8.75h-1.25zm5 0V10h1.25V8.75h-1.25zm2.5 0V10h1.25V8.75h-1.25zm-10 2.5v1.25h1.25v-1.25h-1.25zm2.5 0v1.25h1.25v-1.25h-1.25zm5 0v1.25h1.25v-1.25h-1.25zm2.5 0v1.25h1.25v-1.25h-1.25zm-10 2.5V15h1.25v-1.25h-1.25zm2.5 0V15h1.25v-1.25h-1.25zm5 0V15h1.25v-1.25h-1.25zm2.5 0V15h1.25v-1.25h-1.25z"/></symbol><symbol id="icon-balloons" viewBox="0 0 24 24"><path fill="#f58fbf" style="fill:var(--color1, #f58fbf)" d="M16.513 6.681c-.147-.01-.297-.016-.452-.016-.543 0-1.05.081-1.515.229-.218 2.738-1.433 5.142-2.829 6.619.717 2.998 2.763 5.186 4.344 5.186.136 0 .278-.019.422-.054 1.821-.444 4.185-3.598 4.185-7.345 0-2.416-1.4-4.422-4.155-4.619z"/><path fill="#c60024" style="fill:var(--color2, #c60024)" d="M16.912 10.917c-.369 0-.69.208-.851.513 0 .001-.001.001-.001.002-.161-.306-.482-.515-.852-.515-.531 0-.947.431-.947.962 0 .251.073.393.132.513.244.494 1.667 1.673 1.667 1.673l.001-.001c.043-.035 1.438-1.19 1.666-1.673.057-.12.134-.273.134-.513 0-.531-.418-.962-.949-.962z"/><path fill="#b3d8f5" style="fill:var(--color3, #b3d8f5)" d="M9.449.377c-.16-.01-.324-.015-.492-.015-3.386 0-5.625 2.553-5.625 5.659 0 4.969 3.244 9.033 5.625 9.033.149 0 .303-.018.46-.053.734-.161 1.544-.689 2.3-1.489 1.397-1.477 2.611-3.881 2.829-6.619.023-.288.035-.579.035-.873 0-2.967-1.729-5.428-5.133-5.644z"/><path fill="#97c7ef" style="fill:var(--color4, #97c7ef)" d="M4.273 6.021c0-2.967 2.042-5.428 5.175-5.644-.16-.01-.324-.015-.492-.015-3.386 0-5.625 2.553-5.625 5.659 0 4.969 3.244 9.033 5.625 9.033.149 0 .303-.018.46-.053-2.313-.488-5.143-4.34-5.143-8.981z"/><path fill="#c60024" style="fill:var(--color2, #c60024)" d="M10.108 5.331c-.499 0-.933.281-1.151.694 0 .001-.001.002-.001.002-.218-.414-.652-.697-1.152-.697-.719 0-1.281.583-1.281 1.301 0 .34.099.532.179.694.33.668 2.255 2.263 2.255 2.263l.001-.001c.058-.048 1.944-1.609 2.254-2.262.077-.162.181-.369.181-.694 0-.718-.566-1.301-1.284-1.301z"/><path fill="#ef72ac" style="fill:var(--color5, #ef72ac)" d="M12.582 13.513c1.397-1.477 2.611-3.881 2.829-6.619.345-.11.713-.182 1.102-.213-.147-.011-.297-.016-.452-.016-.543 0-1.05.081-1.515.229-.218 2.738-1.433 5.142-2.829 6.619.717 2.998 2.763 5.186 4.344 5.186.136 0 .278-.019.422-.054-1.5-.353-3.249-2.408-3.901-5.133z"/><path fill="#f58fbf" style="fill:var(--color1, #f58fbf)" d="M15.956 18.886c.185.185.119.55-.146.816s-.631.331-.816.146c-.185-.185-.119-.55.146-.816s.631-.331.816-.146z"/><path fill="#f58fbf" style="fill:var(--color1, #f58fbf)" d="M17.129 19.849c-.185.185-.55.119-.816-.146s-.331-.631-.146-.816c.185-.185.55-.119.816.146s.331.631.146.816z"/><path fill="#b3d8f5" style="fill:var(--color3, #b3d8f5)" d="M8.844 15.167c.198.198.128.59-.157.875s-.677.355-.875.157c-.198-.198-.128-.59.157-.875s.677-.355.875-.157z"/><path fill="#b3d8f5" style="fill:var(--color3, #b3d8f5)" d="M10.102 16.199c-.198.198-.59.128-.875-.157s-.355-.677-.157-.875c.198-.198.59-.128.875.157s.355.677.157.875z"/><path fill="#a50020" style="fill:var(--color6, #a50020)" d="M10.108 5.331c-.499 0-.933.281-1.151.694v3.563c.058-.048 1.944-1.609 2.254-2.262.077-.162.181-.369.181-.694 0-.719-.566-1.301-1.284-1.301zM16.912 10.917c-.369 0-.69.208-.851.513v2.634c.043-.035 1.438-1.19 1.666-1.673.057-.12.134-.273.134-.513 0-.531-.418-.962-.949-.962z"/><path fill="#fff" style="fill:var(--color7, #fff)" d="M11.542 2.56c-.165-.111-.343-.21-.529-.295l.302-.658c.221.101.432.22.63.352l-.403.601zM13.022 4.546c-.255-.759-.682-1.376-1.268-1.833l.445-.571c.69.538 1.212 1.289 1.509 2.173l-.686.231zM19.281 10.869c-.131-.665-.373-1.237-.76-1.801l.596-.41c.445.648.723 1.306.874 2.07l-.71.14z"/><path style="fill:var(--color8, #000)" d="M10.107 4.974c-.437 0-.847.17-1.151.463-.305-.293-.714-.463-1.151-.463-.905 0-1.642.745-1.642 1.662 0 .417.122.663.211.843l.005.01c.353.716 2.144 2.212 2.347 2.38l.23.191.231-.19c.205-.169 2.011-1.671 2.35-2.386l.009-.019c.082-.173.207-.436.207-.829 0-.916-.738-1.662-1.645-1.662zm.784 2.18-.009.019c-.183.386-1.196 1.324-1.926 1.944C8.23 8.498 7.22 7.56 7.027 7.168l-.005-.011c-.07-.141-.136-.274-.136-.522 0-.526.403-.938.918-.938.35 0 .668.193.831.503l.32.609.32-.609c.163-.31.481-.503.831-.503.517 0 .921.412.921.938 0 .231-.07.377-.137.519zM15.209 10.558c-.722 0-1.309.594-1.309 1.323 0 .33.1.532.165.665l.004.008c.264.536 1.512 1.586 1.76 1.791l.23.191.231-.19c.25-.206 1.509-1.261 1.763-1.797l.007-.014c.065-.136.162-.341.162-.654 0-.73-.588-1.323-1.311-1.323-.318 0-.617.113-.851.31-.234-.197-.534-.31-.851-.31zm1.703.723c.329 0 .587.263.587.599 0 .149-.043.239-.092.343l-.007.015c-.119.251-.791.884-1.339 1.354-.545-.469-1.217-1.104-1.342-1.359l-.004-.008c-.051-.102-.091-.183-.091-.344 0-.336.257-.599.585-.599.223 0 .427.123.531.321l.32.609.32-.609c.104-.198.308-.321.531-.321z"/><path style="fill:var(--color8, #000)" d="M14.936 6.419c.005-.134.008-.266.008-.398 0-1.671-.536-3.176-1.509-4.239C12.367.616 10.819 0 8.958 0 7.254 0 5.712.631 4.615 1.776 3.555 2.883 2.972 4.39 2.972 6.021c0 2.358.704 4.696 1.982 6.583.816 1.205 1.775 2.078 2.72 2.509-.395.429-.449 1.009-.116 1.342.147.147.343.219.553.219.066 0 .133-.007.201-.021-.003.059-.005.123-.005.191 0 .554.193.852.348 1.091.134.208.231.358.231.698s-.097.49-.231.698c-.155.239-.348.537-.348 1.091s.193.852.348 1.091c.134.208.231.358.231.698s-.097.49-.231.698c-.155.239-.347.537-.347 1.091h.724c0-.34.097-.49.231-.698.155-.239.347-.537.347-1.091s-.193-.852-.347-1.091c-.134-.208-.231-.358-.231-.698s.097-.49.231-.698c.155-.239.348-.537.348-1.091s-.193-.852-.348-1.091c-.134-.208-.231-.358-.231-.698 0-.201.016-.341.04-.456.227.189.491.286.735.286.21 0 .406-.072.553-.219.337-.337.278-.926-.129-1.357.43-.205.869-.507 1.302-.897.655 2.128 1.984 3.892 3.364 4.566-.003.003-.007.006-.01.009-.18.18-.302.404-.343.63-.048.27.023.524.196.698.142.142.331.212.533.212.078 0 .159-.011.239-.031-.002.056-.003.116-.003.181 0 .517.119.789.223 1.028.091.208.163.373.163.739s-.072.531-.163.739c-.105.24-.223.511-.223 1.028h.724c0-.366.072-.531.163-.739.105-.24.223-.511.223-1.028s-.119-.789-.223-1.028c-.091-.208-.163-.373-.163-.739 0-.152.006-.263.015-.351.193.133.406.201.607.201.202 0 .391-.069.533-.212.173-.173.245-.427.196-.698-.041-.226-.162-.45-.343-.63-.008-.008-.016-.014-.024-.022.738-.375 1.489-1.079 2.143-2.034 1.078-1.575 1.672-3.5 1.672-5.421 0-1.385-.445-2.634-1.253-3.516-.887-.969-2.172-1.481-3.716-1.481-.386 0-.763.039-1.125.115zm-6.388 9.209c-.025.05-.063.104-.117.158-.167.167-.335.177-.363.157-.02-.028-.01-.197.157-.364.13-.13.26-.164.325-.164.016 0 .026.002.033.005-.008.08-.02.147-.035.207zm1.298.315c-.028.02-.197.01-.364-.157-.117-.117-.157-.235-.163-.305 0-.01-.001-.02-.001-.03.001-.013.003-.023.007-.028.006-.005.02-.007.039-.007.065 0 .196.035.325.164.167.167.177.335.157.363zm1.608-2.679c-.859.908-1.769 1.428-2.497 1.428-1.059 0-2.364-.956-3.406-2.494-1.198-1.769-1.857-3.963-1.857-6.177 0-3.069 2.213-5.297 5.263-5.297 3.197 0 5.263 2.079 5.263 5.297 0 .277-.011.561-.034.844-.179 2.251-1.088 4.494-2.453 6.089-.091.106-.184.21-.279.31zm4.236 5.962c-.017.06-.057.141-.136.221-.128.128-.259.154-.303.145-.009-.043.017-.175.145-.303.125-.125.253-.152.299-.145-.001.029-.003.057-.005.082zm1.181.365c-.043.009-.175-.017-.303-.145-.105-.105-.141-.211-.145-.27 0-.006 0-.012-.001-.018 0-.005 0-.01.001-.014.044-.009.175.017.303.145s.154.259.145.303zm3.435-8.291c0 3.817-2.608 7.037-4.245 7.037-.672 0-1.482-.49-2.223-1.344-.779-.899-1.387-2.093-1.723-3.378.003-.003.006-.006.009-.01.017-.019.034-.039.052-.059.031-.035.062-.07.092-.105.019-.022.038-.045.057-.068.028-.033.056-.066.084-.1.02-.024.04-.049.059-.073.026-.033.052-.065.078-.098l.06-.078c.025-.033.05-.065.074-.098l.06-.081c.024-.033.048-.066.071-.099.02-.028.04-.056.059-.084.023-.033.046-.066.069-.1.02-.029.039-.058.058-.087.022-.033.044-.067.066-.101.019-.029.038-.059.057-.089.022-.034.043-.068.064-.102.019-.03.037-.06.056-.09.021-.034.042-.069.062-.104.018-.031.036-.061.054-.092.02-.035.04-.071.06-.106.017-.031.035-.062.052-.093.02-.036.039-.073.059-.109.017-.031.033-.062.05-.093.02-.038.039-.076.058-.113.016-.03.031-.061.047-.091.02-.041.04-.082.06-.124.014-.028.027-.056.041-.084.032-.067.063-.134.094-.202.011-.024.021-.048.032-.072.021-.048.043-.097.064-.145.013-.031.026-.062.039-.092.017-.041.034-.081.051-.122l.039-.099c.016-.039.031-.078.046-.118.013-.034.026-.068.039-.103.014-.039.029-.077.043-.116.013-.035.025-.07.037-.105.014-.039.027-.077.04-.116.012-.035.024-.071.035-.106.013-.039.026-.078.038-.117.011-.036.023-.071.033-.107.012-.039.024-.078.036-.118.011-.036.021-.072.032-.108.011-.039.023-.079.033-.119.01-.036.02-.072.029-.108.011-.04.021-.08.031-.12.009-.036.018-.072.027-.107.01-.041.02-.081.029-.122.008-.036.017-.071.025-.107.009-.042.018-.083.027-.125.008-.035.015-.07.022-.105.009-.043.017-.086.025-.129.007-.034.013-.068.019-.101l.024-.135c.006-.032.011-.064.017-.097.008-.049.015-.098.023-.147.004-.028.009-.056.013-.085.009-.064.018-.129.026-.194.002-.013.004-.026.005-.039.009-.076.018-.152.026-.228.374-.097.769-.146 1.177-.146 2.579 0 4.245 1.677 4.245 4.273z"/></symbol></defs></svg>